<svg width="200" height="200" viewBox="0 0 200 200" fill="none" xmlns="http://www.w3.org/2000/svg">
  <defs>
    <linearGradient id="primaryGradient" x1="0%" y1="0%" x2="100%" y2="100%">
      <stop offset="0%" stopColor="#4F46E5" />
      <stop offset="100%" stopColor="#1D4ED8" />
    </linearGradient>
    <linearGradient id="secondaryGradient" x1="0%" y1="0%" x2="100%" y2="100%">
      <stop offset="0%" stopColor="#4338CA" />
      <stop offset="100%" stopColor="#1E40AF" />
    </linearGradient>
    <filter id="shadow" x="-10%" y="-10%" width="120%" height="120%">
      <feDropShadow dx="0" dy="4" stdDeviation="4" floodOpacity="0.3" />
    </filter>
  </defs>

  <circle cx="100" cy="100" r="85" fill="url(#primaryGradient)" filter="url(#shadow)" />
  <circle cx="100" cy="100" r="70" fill="white" opacity="0.15" />
  <path d="M100 50 L135 120 L120 120 L110 100 L90 100 L80 120 L65 120 Z" fill="white" />
  <path d="M90 90 L110 90 L100 65 Z" fill="url(#secondaryGradient)" />
  <path d="M100 130 L115 115 L105 115 L105 95 L95 95 L95 115 L85 115 Z" fill="white" />
  <circle cx="75" cy="140" r="5" fill="white" />
  <circle cx="100" cy="140" r="5" fill="white" />
  <circle cx="125" cy="140" r="5" fill="white" />
</svg> 